<?xml version="1.0" encoding="UTF-8" standalone="no"?>
<!-- Created with Inkscape (http://www.inkscape.org/) -->

<svg
   xmlns:dc="http://purl.org/dc/elements/1.1/"
   xmlns:cc="http://creativecommons.org/ns#"
   xmlns:rdf="http://www.w3.org/1999/02/22-rdf-syntax-ns#"
   xmlns:svg="http://www.w3.org/2000/svg"
   xmlns="http://www.w3.org/2000/svg"
   xmlns:sodipodi="http://sodipodi.sourceforge.net/DTD/sodipodi-0.dtd"
   xmlns:inkscape="http://www.inkscape.org/namespaces/inkscape"
   version="1.1"
   id="svg2"
   xml:space="preserve"
   width="2560"
   height="1365.3333"
   viewBox="0 0 2560 1365.3333"
   sodipodi:docname="22-07-2021-Fe-C-Phase-Diagram-calculated-with-oc6-de-edu.svg"
   inkscape:version="0.92.1 r15371"><metadata
     id="metadata8"><rdf:RDF><cc:Work
         rdf:about=""><dc:format>image/svg+xml</dc:format><dc:type
           rdf:resource="http://purl.org/dc/dcmitype/StillImage" /><dc:title></dc:title></cc:Work></rdf:RDF></metadata><defs
     id="defs6" /><sodipodi:namedview
     pagecolor="#ffffff"
     bordercolor="#666666"
     borderopacity="1"
     objecttolerance="10"
     gridtolerance="10"
     guidetolerance="10"
     inkscape:pageopacity="0"
     inkscape:pageshadow="2"
     inkscape:window-width="1918"
     inkscape:window-height="1148"
     id="namedview4"
     showgrid="false"
     inkscape:zoom="0.43852551"
     inkscape:cx="739.11009"
     inkscape:cy="865.9489"
     inkscape:window-x="0"
     inkscape:window-y="0"
     inkscape:window-maximized="1"
     inkscape:current-layer="g10" /><g
     id="g10"
     inkscape:groupmode="layer"
     inkscape:label="22-07-2021-Fe-C-Phase-Diagram-calculated-with-oc6-de-edu"
     transform="matrix(1.3333333,0,0,-1.3333333,0,1365.3333)"><g
       transform="matrix(1,0,0,-1,25.65415,1029.1308)"
       id="g16"><path
         inkscape:connector-curvature="0"
         id="path18"
         style="fill:none;stroke:#000000;stroke-width:1;stroke-linecap:butt;stroke-linejoin:miter;stroke-miterlimit:10;stroke-dasharray:none;stroke-opacity:1"
         d="m 118.164,410.645 h 10.742" /></g><g
       transform="matrix(1,0,0,-1,25.65415,1029.1308)"
       id="g20"><path
         inkscape:connector-curvature="0"
         id="path22"
         style="fill:none;stroke:#000000;stroke-width:1;stroke-linecap:butt;stroke-linejoin:miter;stroke-miterlimit:10;stroke-dasharray:none;stroke-opacity:1"
         d="M 563.965,410.645 H 552.734" /></g><text
       id="text26"
       style="font-variant:normal;font-size:21.33300781px;font-family:'Nimbus Sans L';-inkscape-font-specification:NimbusSanL-Regu;writing-mode:lr-tb;fill:#000000;fill-opacity:1;fill-rule:nonzero;stroke:none"
       transform="scale(1,-1)"
       x="96.030045"
       y="-610.49969"><tspan
         id="tspan24"
         sodipodi:role="line"
         y="-610.49969"
         x="96.030045 107.89119 119.75233">200</tspan></text>
<g
       transform="matrix(1,0,0,-1,25.65415,1029.1308)"
       id="g28"><path
         inkscape:connector-curvature="0"
         id="path30"
         style="fill:none;stroke:#000000;stroke-width:1;stroke-linecap:butt;stroke-linejoin:miter;stroke-miterlimit:10;stroke-dasharray:none;stroke-opacity:1"
         d="m 118.164,364.746 h 10.742" /></g><g
       transform="matrix(1,0,0,-1,25.65415,1029.1308)"
       id="g32"><path
         inkscape:connector-curvature="0"
         id="path34"
         style="fill:none;stroke:#000000;stroke-width:1;stroke-linecap:butt;stroke-linejoin:miter;stroke-miterlimit:10;stroke-dasharray:none;stroke-opacity:1"
         d="M 563.965,364.746 H 552.734" /></g><text
       id="text38"
       style="font-variant:normal;font-size:21.33300781px;font-family:'Nimbus Sans L';-inkscape-font-specification:NimbusSanL-Regu;writing-mode:lr-tb;fill:#000000;fill-opacity:1;fill-rule:nonzero;stroke:none"
       transform="scale(1,-1)"
       x="96.030045"
       y="-656.30048"><tspan
         id="tspan36"
         sodipodi:role="line"
         y="-656.30048"
         x="96.030045 107.89119 119.75233">400</tspan></text>
<g
       transform="matrix(1,0,0,-1,25.65415,1029.1308)"
       id="g40"><path
         inkscape:connector-curvature="0"
         id="path42"
         style="fill:none;stroke:#000000;stroke-width:1;stroke-linecap:butt;stroke-linejoin:miter;stroke-miterlimit:10;stroke-dasharray:none;stroke-opacity:1"
         d="m 118.164,318.848 h 10.742" /></g><g
       transform="matrix(1,0,0,-1,25.65415,1029.1308)"
       id="g44"><path
         inkscape:connector-curvature="0"
         id="path46"
         style="fill:none;stroke:#000000;stroke-width:1;stroke-linecap:butt;stroke-linejoin:miter;stroke-miterlimit:10;stroke-dasharray:none;stroke-opacity:1"
         d="M 563.965,318.848 H 552.734" /></g><text
       id="text50"
       style="font-variant:normal;font-size:21.33300781px;font-family:'Nimbus Sans L';-inkscape-font-specification:NimbusSanL-Regu;writing-mode:lr-tb;fill:#000000;fill-opacity:1;fill-rule:nonzero;stroke:none"
       transform="scale(1,-1)"
       x="96.030045"
       y="-702.15198"><tspan
         id="tspan48"
         sodipodi:role="line"
         y="-702.15198"
         x="96.030045 107.89119 119.75233">600</tspan></text>
<g
       transform="matrix(1,0,0,-1,25.65415,1029.1308)"
       id="g52"><path
         inkscape:connector-curvature="0"
         id="path54"
         style="fill:none;stroke:#000000;stroke-width:1;stroke-linecap:butt;stroke-linejoin:miter;stroke-miterlimit:10;stroke-dasharray:none;stroke-opacity:1"
         d="m 118.164,272.949 h 10.742" /></g><g
       transform="matrix(1,0,0,-1,25.65415,1029.1308)"
       id="g56"><path
         inkscape:connector-curvature="0"
         id="path58"
         style="fill:none;stroke:#000000;stroke-width:1;stroke-linecap:butt;stroke-linejoin:miter;stroke-miterlimit:10;stroke-dasharray:none;stroke-opacity:1"
         d="M 563.965,272.949 H 552.734" /></g><text
       id="text62"
       style="font-variant:normal;font-size:21.33300781px;font-family:'Nimbus Sans L';-inkscape-font-specification:NimbusSanL-Regu;writing-mode:lr-tb;fill:#000000;fill-opacity:1;fill-rule:nonzero;stroke:none"
       transform="scale(1,-1)"
       x="96.030045"
       y="-747.94885"><tspan
         id="tspan60"
         sodipodi:role="line"
         y="-747.94885"
         x="96.030045 107.89119 119.75233">800</tspan></text>
<g
       transform="matrix(1,0,0,-1,25.65415,1029.1308)"
       id="g64"><path
         inkscape:connector-curvature="0"
         id="path66"
         style="fill:none;stroke:#000000;stroke-width:1;stroke-linecap:butt;stroke-linejoin:miter;stroke-miterlimit:10;stroke-dasharray:none;stroke-opacity:1"
         d="m 118.164,227.539 h 10.742" /></g><g
       transform="matrix(1,0,0,-1,25.65415,1029.1308)"
       id="g68"><path
         inkscape:connector-curvature="0"
         id="path70"
         style="fill:none;stroke:#000000;stroke-width:1;stroke-linecap:butt;stroke-linejoin:miter;stroke-miterlimit:10;stroke-dasharray:none;stroke-opacity:1"
         d="M 563.965,227.539 H 552.734" /></g><text
       id="text74"
       style="font-variant:normal;font-size:21.33300781px;font-family:'Nimbus Sans L';-inkscape-font-specification:NimbusSanL-Regu;writing-mode:lr-tb;fill:#000000;fill-opacity:1;fill-rule:nonzero;stroke:none"
       transform="scale(1,-1)"
       x="84.17067"
       y="-793.80042"><tspan
         id="tspan72"
         sodipodi:role="line"
         y="-793.80042"
         x="84.17067 96.031815 107.89296 119.7541">1000</tspan></text>
<g
       transform="matrix(1,0,0,-1,25.65415,1029.1308)"
       id="g76"><path
         inkscape:connector-curvature="0"
         id="path78"
         style="fill:none;stroke:#000000;stroke-width:1;stroke-linecap:butt;stroke-linejoin:miter;stroke-miterlimit:10;stroke-dasharray:none;stroke-opacity:1"
         d="m 118.164,181.641 h 10.742" /></g><g
       transform="matrix(1,0,0,-1,25.65415,1029.1308)"
       id="g80"><path
         inkscape:connector-curvature="0"
         id="path82"
         style="fill:none;stroke:#000000;stroke-width:1;stroke-linecap:butt;stroke-linejoin:miter;stroke-miterlimit:10;stroke-dasharray:none;stroke-opacity:1"
         d="M 563.965,181.641 H 552.734" /></g><text
       id="text86"
       style="font-variant:normal;font-size:21.33300781px;font-family:'Nimbus Sans L';-inkscape-font-specification:NimbusSanL-Regu;writing-mode:lr-tb;fill:#000000;fill-opacity:1;fill-rule:nonzero;stroke:none"
       transform="scale(1,-1)"
       x="84.17067"
       y="-839.6012"><tspan
         id="tspan84"
         sodipodi:role="line"
         y="-839.6012"
         x="84.17067 96.031815 107.89296 119.7541">1200</tspan></text>
<g
       transform="matrix(1,0,0,-1,25.65415,1029.1308)"
       id="g88"><path
         inkscape:connector-curvature="0"
         id="path90"
         style="fill:none;stroke:#000000;stroke-width:1;stroke-linecap:butt;stroke-linejoin:miter;stroke-miterlimit:10;stroke-dasharray:none;stroke-opacity:1"
         d="m 118.164,135.742 h 10.742" /></g><g
       transform="matrix(1,0,0,-1,25.65415,1029.1308)"
       id="g92"><path
         inkscape:connector-curvature="0"
         id="path94"
         style="fill:none;stroke:#000000;stroke-width:1;stroke-linecap:butt;stroke-linejoin:miter;stroke-miterlimit:10;stroke-dasharray:none;stroke-opacity:1"
         d="M 563.965,135.742 H 552.734" /></g><text
       id="text98"
       style="font-variant:normal;font-size:21.33300781px;font-family:'Nimbus Sans L';-inkscape-font-specification:NimbusSanL-Regu;writing-mode:lr-tb;fill:#000000;fill-opacity:1;fill-rule:nonzero;stroke:none"
       transform="scale(1,-1)"
       x="84.17067"
       y="-885.44885"><tspan
         id="tspan96"
         sodipodi:role="line"
         y="-885.44885"
         x="84.17067 96.031815 107.89296 119.7541">1400</tspan></text>
<g
       transform="matrix(1,0,0,-1,25.65415,1029.1308)"
       id="g100"><path
         inkscape:connector-curvature="0"
         id="path102"
         style="fill:none;stroke:#000000;stroke-width:1;stroke-linecap:butt;stroke-linejoin:miter;stroke-miterlimit:10;stroke-dasharray:none;stroke-opacity:1"
         d="m 118.164,89.844 h 10.742" /></g><g
       transform="matrix(1,0,0,-1,25.65415,1029.1308)"
       id="g104"><path
         inkscape:connector-curvature="0"
         id="path106"
         style="fill:none;stroke:#000000;stroke-width:1;stroke-linecap:butt;stroke-linejoin:miter;stroke-miterlimit:10;stroke-dasharray:none;stroke-opacity:1"
         d="M 563.965,89.844 H 552.734" /></g><text
       id="text110"
       style="font-variant:normal;font-size:21.33300781px;font-family:'Nimbus Sans L';-inkscape-font-specification:NimbusSanL-Regu;writing-mode:lr-tb;fill:#000000;fill-opacity:1;fill-rule:nonzero;stroke:none"
       transform="scale(1,-1)"
       x="84.17067"
       y="-931.24963"><tspan
         id="tspan108"
         sodipodi:role="line"
         y="-931.24963"
         x="84.17067 96.031815 107.89296 119.7541">1600</tspan></text>
<g
       transform="matrix(1,0,0,-1,25.65415,1029.1308)"
       id="g112"><path
         inkscape:connector-curvature="0"
         id="path114"
         style="fill:none;stroke:#000000;stroke-width:1;stroke-linecap:butt;stroke-linejoin:miter;stroke-miterlimit:10;stroke-dasharray:none;stroke-opacity:1"
         d="M 118.164,410.645 V 399.414" /></g><g
       transform="matrix(1,0,0,-1,25.65415,1029.1308)"
       id="g116"><path
         inkscape:connector-curvature="0"
         id="path118"
         style="fill:none;stroke:#000000;stroke-width:1;stroke-linecap:butt;stroke-linejoin:miter;stroke-miterlimit:10;stroke-dasharray:none;stroke-opacity:1"
         d="m 118.164,89.844 v 11.23" /></g><text
       id="text122"
       style="font-variant:normal;font-size:21.33300781px;font-family:'Nimbus Sans L';-inkscape-font-specification:NimbusSanL-Regu;writing-mode:lr-tb;fill:#000000;fill-opacity:1;fill-rule:nonzero;stroke:none"
       transform="scale(1,-1)"
       x="140.63942"
       y="-582.55048"><tspan
         id="tspan120"
         y="-582.55048"
         x="140.63942">0</tspan></text>
<g
       transform="matrix(1,0,0,-1,25.65415,1029.1308)"
       id="g124"><path
         inkscape:connector-curvature="0"
         id="path126"
         style="fill:none;stroke:#000000;stroke-width:1;stroke-linecap:butt;stroke-linejoin:miter;stroke-miterlimit:10;stroke-dasharray:none;stroke-opacity:1"
         d="M 185.547,410.645 V 399.414" /></g><g
       transform="matrix(1,0,0,-1,25.65415,1029.1308)"
       id="g128"><path
         inkscape:connector-curvature="0"
         id="path130"
         style="fill:none;stroke:#000000;stroke-width:1;stroke-linecap:butt;stroke-linejoin:miter;stroke-miterlimit:10;stroke-dasharray:none;stroke-opacity:1"
         d="m 185.547,89.844 v 11.23" /></g><text
       id="text134"
       style="font-variant:normal;font-size:21.33300781px;font-family:'Nimbus Sans L';-inkscape-font-specification:NimbusSanL-Regu;writing-mode:lr-tb;fill:#000000;fill-opacity:1;fill-rule:nonzero;stroke:none"
       transform="scale(1,-1)"
       x="208.24098"
       y="-582.55048"><tspan
         id="tspan132"
         y="-582.55048"
         x="208.24098">1</tspan></text>
<g
       transform="matrix(1,0,0,-1,25.65415,1029.1308)"
       id="g136"><path
         inkscape:connector-curvature="0"
         id="path138"
         style="fill:none;stroke:#000000;stroke-width:1;stroke-linecap:butt;stroke-linejoin:miter;stroke-miterlimit:10;stroke-dasharray:none;stroke-opacity:1"
         d="M 252.93,410.645 V 399.414" /></g><g
       transform="matrix(1,0,0,-1,25.65415,1029.1308)"
       id="g140"><path
         inkscape:connector-curvature="0"
         id="path142"
         style="fill:none;stroke:#000000;stroke-width:1;stroke-linecap:butt;stroke-linejoin:miter;stroke-miterlimit:10;stroke-dasharray:none;stroke-opacity:1"
         d="m 252.93,89.844 v 11.23" /></g><text
       id="text146"
       style="font-variant:normal;font-size:21.33300781px;font-family:'Nimbus Sans L';-inkscape-font-specification:NimbusSanL-Regu;writing-mode:lr-tb;fill:#000000;fill-opacity:1;fill-rule:nonzero;stroke:none"
       transform="scale(1,-1)"
       x="275.79175"
       y="-582.55048"><tspan
         id="tspan144"
         y="-582.55048"
         x="275.79175">2</tspan></text>
<g
       transform="matrix(1,0,0,-1,25.65415,1029.1308)"
       id="g148"><path
         inkscape:connector-curvature="0"
         id="path150"
         style="fill:none;stroke:#000000;stroke-width:1;stroke-linecap:butt;stroke-linejoin:miter;stroke-miterlimit:10;stroke-dasharray:none;stroke-opacity:1"
         d="M 320.801,410.645 V 399.414" /></g><g
       transform="matrix(1,0,0,-1,25.65415,1029.1308)"
       id="g152"><path
         inkscape:connector-curvature="0"
         id="path154"
         style="fill:none;stroke:#000000;stroke-width:1;stroke-linecap:butt;stroke-linejoin:miter;stroke-miterlimit:10;stroke-dasharray:none;stroke-opacity:1"
         d="m 320.801,89.844 v 11.23" /></g><text
       id="text158"
       style="font-variant:normal;font-size:21.33300781px;font-family:'Nimbus Sans L';-inkscape-font-specification:NimbusSanL-Regu;writing-mode:lr-tb;fill:#000000;fill-opacity:1;fill-rule:nonzero;stroke:none"
       transform="scale(1,-1)"
       x="343.3894"
       y="-582.55048"><tspan
         id="tspan156"
         y="-582.55048"
         x="343.3894">3</tspan></text>
<g
       transform="matrix(1,0,0,-1,25.65415,1029.1308)"
       id="g160"><path
         inkscape:connector-curvature="0"
         id="path162"
         style="fill:none;stroke:#000000;stroke-width:1;stroke-linecap:butt;stroke-linejoin:miter;stroke-miterlimit:10;stroke-dasharray:none;stroke-opacity:1"
         d="M 388.184,410.645 V 399.414" /></g><g
       transform="matrix(1,0,0,-1,25.65415,1029.1308)"
       id="g164"><path
         inkscape:connector-curvature="0"
         id="path166"
         style="fill:none;stroke:#000000;stroke-width:1;stroke-linecap:butt;stroke-linejoin:miter;stroke-miterlimit:10;stroke-dasharray:none;stroke-opacity:1"
         d="m 388.184,89.844 v 11.23" /></g><text
       id="text170"
       style="font-variant:normal;font-size:21.33300781px;font-family:'Nimbus Sans L';-inkscape-font-specification:NimbusSanL-Regu;writing-mode:lr-tb;fill:#000000;fill-opacity:1;fill-rule:nonzero;stroke:none"
       transform="scale(1,-1)"
       x="410.94019"
       y="-582.55048"><tspan
         id="tspan168"
         y="-582.55048"
         x="410.94019">4</tspan></text>
<g
       transform="matrix(1,0,0,-1,25.65415,1029.1308)"
       id="g172"><path
         inkscape:connector-curvature="0"
         id="path174"
         style="fill:none;stroke:#000000;stroke-width:1;stroke-linecap:butt;stroke-linejoin:miter;stroke-miterlimit:10;stroke-dasharray:none;stroke-opacity:1"
         d="M 456.055,410.645 V 399.414" /></g><g
       transform="matrix(1,0,0,-1,25.65415,1029.1308)"
       id="g176"><path
         inkscape:connector-curvature="0"
         id="path178"
         style="fill:none;stroke:#000000;stroke-width:1;stroke-linecap:butt;stroke-linejoin:miter;stroke-miterlimit:10;stroke-dasharray:none;stroke-opacity:1"
         d="m 456.055,89.844 v 11.23" /></g><text
       id="text182"
       style="font-variant:normal;font-size:21.33300781px;font-family:'Nimbus Sans L';-inkscape-font-specification:NimbusSanL-Regu;writing-mode:lr-tb;fill:#000000;fill-opacity:1;fill-rule:nonzero;stroke:none"
       transform="scale(1,-1)"
       x="478.54175"
       y="-582.55048"><tspan
         id="tspan180"
         y="-582.55048"
         x="478.54175">5</tspan></text>
<g
       transform="matrix(1,0,0,-1,25.65415,1029.1308)"
       id="g184"><path
         inkscape:connector-curvature="0"
         id="path186"
         style="fill:none;stroke:#000000;stroke-width:1;stroke-linecap:butt;stroke-linejoin:miter;stroke-miterlimit:10;stroke-dasharray:none;stroke-opacity:1"
         d="M 523.438,410.645 V 399.414" /></g><g
       transform="matrix(1,0,0,-1,25.65415,1029.1308)"
       id="g188"><path
         inkscape:connector-curvature="0"
         id="path190"
         style="fill:none;stroke:#000000;stroke-width:1;stroke-linecap:butt;stroke-linejoin:miter;stroke-miterlimit:10;stroke-dasharray:none;stroke-opacity:1"
         d="m 523.438,89.844 v 11.23" /></g><text
       id="text194"
       style="font-variant:normal;font-size:21.33300781px;font-family:'Nimbus Sans L';-inkscape-font-specification:NimbusSanL-Regu;writing-mode:lr-tb;fill:#000000;fill-opacity:1;fill-rule:nonzero;stroke:none"
       transform="scale(1,-1)"
       x="546.09253"
       y="-582.55048"><tspan
         id="tspan192"
         y="-582.55048"
         x="546.09253">6</tspan></text>
<g
       transform="matrix(1,0,0,-1,25.65415,1029.1308)"
       id="g196"><path
         inkscape:connector-curvature="0"
         id="path198"
         style="fill:none;stroke:#000000;stroke-width:1;stroke-linecap:butt;stroke-linejoin:miter;stroke-miterlimit:10;stroke-dasharray:none;stroke-opacity:1"
         d="M 118.164,89.844 H 563.965 V 410.645 H 118.164 Z" /></g><text
       id="text202"
       style="font-variant:normal;font-weight:bold;font-size:26.66699219px;font-family:'DejaVu Serif';-inkscape-font-specification:DejaVuSerif-Bold;writing-mode:lr-tb;fill:#000000;fill-opacity:1;fill-rule:nonzero;stroke:none"
       transform="scale(1,-1)"
       x="29.269363"
       y="-534.09149"><tspan
         id="tspan200"
         sodipodi:role="line"
         y="-534.09149"
         x="29.269363 20.869278 39.66951">O C</tspan></text>
<text
       id="text206"
       style="font-variant:normal;font-size:21.33300781px;font-family:'Nimbus Sans L';-inkscape-font-specification:NimbusSanL-Regu;writing-mode:lr-tb;fill:#000000;fill-opacity:1;fill-rule:nonzero;stroke:none"
       transform="matrix(0,1,1,0,0,0)"
       x="703.67767"
       y="53.63295"><tspan
         id="tspan204"
         sodipodi:role="line"
         y="53.63295"
         x="703.67767 716.71216 728.5733 746.34369 758.20483 770.06598 777.16986 789.03101 794.96161 806.82275 813.92664 819.85724 825.78778 838.71558">Temperatur, °C</tspan></text>
<text
       id="text210"
       style="font-variant:normal;font-size:21.33300781px;font-family:'Nimbus Sans L';-inkscape-font-specification:NimbusSanL-Regu;writing-mode:lr-tb;fill:#000000;fill-opacity:1;fill-rule:nonzero;stroke:none"
       transform="scale(1,-1)"
       x="228.52522"
       y="-540.65204"><tspan
         id="tspan208"
         sodipodi:role="line"
         y="-540.65204"
         x="228.52522 241.55971 253.42085 264.08734 275.94849 293.71887 311.48926 323.35046 335.21161 345.87811 357.73926 363.66986 374.33636 386.19751 398.05859 409.9198 415.85034 421.78088 439.55127 451.41248 457.34302 464.4469 483.41199 489.34253">Zusammensetzung, Ma.-% C</tspan></text>
<text
       id="text216"
       style="font-variant:normal;font-size:13.33300781px;font-family:'Nimbus Sans L';-inkscape-font-specification:NimbusSanL-Regu;writing-mode:lr-tb;fill:#000000;fill-opacity:1;fill-rule:nonzero;stroke:none"
       transform="scale(1,-1)"
       x="177.326"
       y="-982.17444"><tspan
         id="tspan212"
         sodipodi:role="line"
         y="-982.17444"
         x="177.326 187.69911 195.11226 202.52541 209.93855 219.56502 226.97816 229.93806 237.35121 244.76436 252.17751 259.59064 263.29724 270.71039 274.41699 281.83014 289.24329 296.61639 300.323 304.0296 311.44275 318.8559 326.26904 333.68219 341.09534 345.53522 352.94836 360.36157 364.80133 372.21466 379.62775 383.33423 387.04089 390.74744 400.3739 403.33386 407.04041 414.45349 418.16016 428.49316 438.11963 447.74609 456.63916 464.05237 474.42542 482.5719 486.27844 497.38489 504.79797 512.21118 515.91772 523.33093 527.03748 530.74402 533.70398 541.11719 544.82373 552.23682">OpenCalphad 6.018 : 2021-03-05 : with GNUPLOT map 3 fig 2 </tspan><tspan
         id="tspan214"
         sodipodi:role="line"
         y="-965.22522"
         x="213.25917 221.40565 229.19209 238.08522 241.79182 249.20497 258.09802 265.88452 273.29767 280.71082 288.12396 295.53711 302.95026 310.3634 314.07001 317.77661 327.36304 335.14948 342.56262 346.26923 349.97577 358.8689 363.30872 372.93524 377.37512 385.16162 394.05469 397.76135 401.4679 408.88098 412.58765 421.48071 428.89392 440.00024 447.41345 454.07996 457.74646 461.45312 471.82617 481.45264 485.15918 495.53223 502.94543 505.90527 509.61194 516.27844">T=Y, P=100000, N=1, X(C)=X, L.Samek, OC Gui v6</tspan></text>
<g
       transform="matrix(1,0,0,-1,25.65415,1029.1308)"
       id="g218"><path
         inkscape:connector-curvature="0"
         id="path220"
         style="fill:none;stroke:#000000;stroke-width:2;stroke-linecap:butt;stroke-linejoin:miter;stroke-miterlimit:10;stroke-dasharray:none;stroke-opacity:1"
         d="m 414.051,193.301 h -0.102 l -0.949,-0.403 -1.852,-0.699 -3.75,-1.5 -5.949,-2.25 -6,-2.301 -6.097,-2.296 -6.153,-2.301 -6.25,-2.301 -6.301,-2.301 -6.398,-2.25 -6.449,-2.301 -6.602,-2.296 -6.648,-2.301 -6.75,-2.301 -6.801,-2.25 -6.949,-2.301 -7.051,-2.301 -7.102,-2.296 -7.25,-2.301 -7.347,-2.301 -7.449,-2.25 -7.602,-2.301 -7.699,-2.301 -7.801,-2.296 -7.949,-2.301 -8.102,-2.25 -8.199,-2.301 -8.398,-2.301 -8.5,-2.301 -8.704,-2.296 -8.898,-2.301 -9.051,-2.25 -9.25,-2.301 -9.449,-2.301 -9.699,-2.301 -10,-2.296 -4.949,-1.102" /></g><g
       transform="matrix(1,0,0,-1,25.65415,1029.1308)"
       id="g222"><path
         inkscape:connector-curvature="0"
         id="path224"
         style="fill:none;stroke:#000000;stroke-width:2;stroke-linecap:butt;stroke-linejoin:miter;stroke-miterlimit:10;stroke-dasharray:none;stroke-opacity:1"
         d="m 153.602,114 h -0.051 l -0.051,-0.051 -1.25,-0.347 -2.5,-0.75 -5,-1.454 -8.102,-2.296 -8.347,-2.301 -8.699,-2.301 -0.403,-0.051 v -0.051 h -0.051 l -0.546,-0.148 -0.204,-0.051 -0.398,-0.097 h -0.051" /></g><g
       transform="matrix(1,0,0,-1,25.65415,1029.1308)"
       id="g226"><path
         inkscape:connector-curvature="0"
         id="path228"
         style="fill:none;stroke:#000000;stroke-width:2;stroke-linecap:butt;stroke-linejoin:miter;stroke-miterlimit:10;stroke-dasharray:none;stroke-opacity:1"
         d="m 414.051,193.301 h 0.148 l 1.551,-0.403 3.148,-0.699 6.551,-1.5 11,-2.25 12.153,-2.301 13.75,-2.296 16.097,-2.301 20.102,-2.301 29.801,-2.301 h 0.546 l 0.551,-0.051 H 530 l 0.5,-0.046 h 0.551 l 0.551,-0.051 5.449,-0.25 5.5,-0.199 5.5,-0.204 5.5,-0.148 5.597,-0.102 4.801,-0.046" /></g><g
       transform="matrix(1,0,0,-1,25.65415,1029.1308)"
       id="g230"><path
         inkscape:connector-curvature="0"
         id="path232"
         style="fill:none;stroke:#4169e1;stroke-width:2;stroke-linecap:butt;stroke-linejoin:miter;stroke-miterlimit:10;stroke-dasharray:none;stroke-opacity:1"
         d="m 124.25,114 h -0.051 v -0.051 l -0.199,-0.347 -0.449,-0.75 -0.852,-1.454 -1.449,-2.296 -3,-4.602 -0.102,-0.051 v -0.051 l -0.097,-0.148 -0.051,-0.051 -0.051,-0.097" /></g><g
       transform="matrix(1,0,0,-1,25.65415,1029.1308)"
       id="g234"><path
         inkscape:connector-curvature="0"
         id="path236"
         style="fill:none;stroke:#4169e1;stroke-width:2;stroke-linecap:butt;stroke-linejoin:miter;stroke-miterlimit:10;stroke-dasharray:none;stroke-opacity:1"
         d="m 119.25,289.949 v -0.398 l -0.051,-0.75 -0.051,-1.449 -0.046,-2.301 -0.051,-2.301 -0.102,-2.301 -0.051,-2.25 -0.046,-2.301 -0.102,-2.296 -0.102,-4.602 -0.097,-2.301 -0.051,-2.25 -0.051,-2.301 -0.097,-2.296 -0.051,-2.301 -0.102,-2.301 -0.051,-2.25 -0.097,-2.301 -0.051,-2.301 -0.051,-0.597 v -0.25" /></g><g
       transform="matrix(1,0,0,-1,25.65415,1029.1308)"
       id="g238"><path
         inkscape:connector-curvature="0"
         id="path240"
         style="fill:none;stroke:#4169e1;stroke-width:2;stroke-linecap:butt;stroke-linejoin:miter;stroke-miterlimit:10;stroke-dasharray:none;stroke-opacity:1"
         d="m 124.25,114 -0.051,0.051 -0.148,0.347 -0.301,0.75 -0.602,1.454 -0.847,2.296 -0.75,2.301 -0.699,2.25 -1.204,4.602 -0.5,2.301 -0.449,2.296 -0.398,2.25 v 0.051 l -0.352,2" /></g><g
       transform="matrix(1,0,0,-1,25.65415,1029.1308)"
       id="g242"><path
         inkscape:connector-curvature="0"
         id="path244"
         style="fill:none;stroke:#4169e1;stroke-width:2;stroke-linecap:butt;stroke-linejoin:miter;stroke-miterlimit:10;stroke-dasharray:none;stroke-opacity:1"
         d="M 119.25,289.949 V 290 l -0.051,0.352 -0.051,0.75 -0.046,1.449 -0.102,2.301 -0.102,2.296 -0.097,2.25 -0.102,2.301 -0.051,2.301 -0.097,2.301 -0.051,2.301 -0.051,2.25 -0.051,2.296 -0.046,2.301 -0.102,4.602 -0.086,2.215 v 82.031" /></g><g
       transform="matrix(1,0,0,-1,25.65415,1029.1308)"
       id="g246"><path
         inkscape:connector-curvature="0"
         id="path248"
         style="fill:none;stroke:#00c000;stroke-width:2;stroke-linecap:butt;stroke-linejoin:miter;stroke-miterlimit:10;stroke-dasharray:none;stroke-opacity:1"
         d="m 256.699,193.301 0.137,0.058 h 307.129" /></g><g
       transform="matrix(1,0,0,-1,25.65415,1029.1308)"
       id="g250"><path
         inkscape:connector-curvature="0"
         id="path252"
         style="fill:none;stroke:#00c000;stroke-width:2;stroke-linecap:butt;stroke-linejoin:miter;stroke-miterlimit:10;stroke-dasharray:none;stroke-opacity:1"
         d="M 563.965,193.359 H 414.062" /></g><g
       transform="matrix(1,0,0,-1,25.65415,1029.1308)"
       id="g254"><path
         inkscape:connector-curvature="0"
         id="path256"
         style="fill:none;stroke:#00c000;stroke-width:2;stroke-linecap:butt;stroke-linejoin:miter;stroke-miterlimit:10;stroke-dasharray:none;stroke-opacity:1"
         d="m 129.551,114 -0.156,-0.23 h -5.372 29.786" /></g><g
       transform="matrix(1,0,0,-1,25.65415,1029.1308)"
       id="g258"><path
         inkscape:connector-curvature="0"
         id="path260"
         style="fill:none;stroke:#00c000;stroke-width:2;stroke-linecap:butt;stroke-linejoin:miter;stroke-miterlimit:10;stroke-dasharray:none;stroke-opacity:1"
         d="m 169.352,289.949 0.082,0.09 h 394.531" /></g><g
       transform="matrix(1,0,0,-1,25.65415,1029.1308)"
       id="g262"><path
         inkscape:connector-curvature="0"
         id="path264"
         style="fill:none;stroke:#00c000;stroke-width:2;stroke-linecap:butt;stroke-linejoin:miter;stroke-miterlimit:10;stroke-dasharray:none;stroke-opacity:1"
         d="M 563.965,290.039 H 119.141" /></g><g
       transform="matrix(1,0,0,-1,25.65415,1029.1308)"
       id="g266"><path
         inkscape:connector-curvature="0"
         id="path268"
         style="fill:none;stroke:#ff0000;stroke-width:2;stroke-linecap:butt;stroke-linejoin:miter;stroke-miterlimit:10;stroke-dasharray:none;stroke-opacity:1"
         d="m 206.301,244.051 h 0.051 l 0.296,-0.403 0.653,-0.699 1.301,-1.449 2.097,-2.301 2.051,-2.301 2.102,-2.296 4.296,-4.602 2.153,-2.25 4.398,-4.602 2.25,-2.296 4.5,-4.602 2.301,-2.25 2.352,-2.301 2.347,-2.301 2.352,-2.296 2.449,-2.301 2.398,-2.25 2.454,-2.301 5,-4.602 2.546,-2.296 0.051,-0.051" /></g><g
       transform="matrix(1,0,0,-1,25.65415,1029.1308)"
       id="g270"><path
         inkscape:connector-curvature="0"
         id="path272"
         style="fill:none;stroke:#ff0000;stroke-width:2;stroke-linecap:butt;stroke-linejoin:miter;stroke-miterlimit:10;stroke-dasharray:none;stroke-opacity:1"
         d="m 256.699,193.301 h -0.051 l -0.546,-0.403 -1.051,-0.699 -2.102,-1.5 -3.301,-2.25 -3.347,-2.301 -3.403,-2.296 -10.347,-6.903 -3.551,-2.25 -3.5,-2.301 -3.602,-2.296 -3.597,-2.301 -3.653,-2.301 -3.648,-2.25 -7.398,-4.602 -3.75,-2.296 -7.5,-4.602 -3.801,-2.25 -3.852,-2.301 -3.801,-2.301 -3.847,-2.296 -3.852,-2.301 -3.898,-2.25 -3.852,-2.301 -3.847,-2.301 -3.852,-2.301 -3.852,-2.296 -3.847,-2.301 -3.801,-2.25 -3.801,-2.301 -3.75,-2.301 -3.699,-2.301 -3.648,-2.296 -1.801,-1.102" /></g><g
       transform="matrix(1,0,0,-1,25.65415,1029.1308)"
       id="g274"><path
         inkscape:connector-curvature="0"
         id="path276"
         style="fill:none;stroke:#ff0000;stroke-width:2;stroke-linecap:butt;stroke-linejoin:miter;stroke-miterlimit:10;stroke-dasharray:none;stroke-opacity:1"
         d="m 206.301,244.051 v 0.051 h -0.051 l -0.301,0.347 -0.648,0.75 -1.301,1.449 -2,2.301 -1.949,2.301 -2,2.301 -1.949,2.301 -1.903,2.296 -1.898,2.25 -1.903,2.301 -1.847,2.301 -1.852,2.301 -1.847,2.301 -1.801,2.25 -1.801,2.296 -1.801,2.301 -3.5,4.602 -1.699,2.301 -1.699,2.25 -1.699,2.296 -1.5,2.051" /></g><g
       transform="matrix(1,0,0,-1,25.65415,1029.1308)"
       id="g278"><path
         inkscape:connector-curvature="0"
         id="path280"
         style="fill:none;stroke:#ff0000;stroke-width:2;stroke-linecap:butt;stroke-linejoin:miter;stroke-miterlimit:10;stroke-dasharray:none;stroke-opacity:1"
         d="m 169.352,289.949 -0.051,-0.051 -0.801,-0.347 -1.5,-0.75 -3,-1.449 -4.449,-2.301 -4.153,-2.301 -3.847,-2.301 -3.551,-2.25 -3.301,-2.301 -3.097,-2.296 -2.903,-2.301 L 136,269 l -2.551,-2.301 -2.347,-2.25 -2.204,-2.301 -2.097,-2.296 -1.903,-2.301 -1.796,-2.301 -1.653,-2.25 -1.551,-2.301 -1.449,-2.301 -0.347,-0.597 v -0.051 l -0.102,-0.148 -0.051,-0.051" /></g><g
       transform="matrix(1,0,0,-1,25.65415,1029.1308)"
       id="g282"><path
         inkscape:connector-curvature="0"
         id="path284"
         style="fill:none;stroke:#ff0000;stroke-width:2;stroke-linecap:butt;stroke-linejoin:miter;stroke-miterlimit:10;stroke-dasharray:none;stroke-opacity:1"
         d="m 129.551,114 v 0.051 l -0.25,0.347 -0.5,0.75 -0.903,1.454 -1.398,2.296 -1.301,2.301 -1.25,2.25 -1.148,2.301 -1.102,2.301 -1.051,2.301 -0.949,2.296 -0.949,2.25 v 0.051 l -0.801,2" /></g><g
       transform="matrix(1,0,0,-1,25.65415,1029.1308)"
       id="g286"><path
         inkscape:connector-curvature="0"
         id="path288"
         style="fill:none;stroke:#000000;stroke-width:1;stroke-linecap:butt;stroke-linejoin:miter;stroke-miterlimit:10;stroke-dasharray:none;stroke-opacity:1"
         d="M 118.164,89.844 H 563.965 V 410.645 H 118.164 Z" /></g></g></svg>